<svg width="65" height="38" viewBox="0 0 65 38" fill="none" xmlns="http://www.w3.org/2000/svg">
<path d="M12.3 22.6998C18.5408 22.6998 23.6 19.0285 23.6 14.4998C23.6 9.97107 18.5408 6.2998 12.3 6.2998C6.05918 6.2998 1 9.97107 1 14.4998C1 19.0285 6.05918 22.6998 12.3 22.6998Z" stroke="#19459D" stroke-width="2" stroke-miterlimit="10" stroke-linecap="round" stroke-linejoin="round"/>
<path d="M4.8999 14.4998C4.8999 14.4998 5.3999 9.7998 13.3999 9.7998V14.4998H4.8999Z" stroke="#19459D" stroke-width="2" stroke-miterlimit="10" stroke-linecap="round" stroke-linejoin="round"/>
<path d="M21.8999 8.60012H36.5999C36.5999 8.60012 28.2999 8.30012 22.3999 18.1001" stroke="#19459D" stroke-width="2" stroke-miterlimit="10" stroke-linecap="round" stroke-linejoin="round"/>
<path d="M7.1001 21.7002V25.6002" stroke="#19459D" stroke-width="2" stroke-miterlimit="10" stroke-linecap="round" stroke-linejoin="round"/>
<path d="M18.1001 21.7002V25.6002" stroke="#19459D" stroke-width="2" stroke-miterlimit="10" stroke-linecap="round" stroke-linejoin="round"/>
<path d="M1 22C1 24 2.6 25.6 4.6 25.6H22.7" stroke="#19459D" stroke-width="2" stroke-miterlimit="10" stroke-linecap="round" stroke-linejoin="round"/>
<path d="M15.4002 6.3H11.2002L12.2002 1H14.4002L15.4002 6.3Z" stroke="#19459D" stroke-width="2" stroke-miterlimit="10" stroke-linecap="round" stroke-linejoin="round"/>
<path d="M36.6 8.6002C37.4837 8.6002 38.2 7.61522 38.2 6.4002C38.2 5.18517 37.4837 4.2002 36.6 4.2002C35.7163 4.2002 35 5.18517 35 6.4002C35 7.61522 35.7163 8.6002 36.6 8.6002Z" stroke="#19459D" stroke-width="2" stroke-miterlimit="10" stroke-linecap="round" stroke-linejoin="round"/>
<path d="M36.6 13.0001C37.4837 13.0001 38.2 12.0151 38.2 10.8001C38.2 9.58507 37.4837 8.6001 36.6 8.6001C35.7163 8.6001 35 9.58507 35 10.8001C35 12.0151 35.7163 13.0001 36.6 13.0001Z" stroke="#19459D" stroke-width="2" stroke-miterlimit="10" stroke-linecap="round" stroke-linejoin="round"/>
<path d="M1 1H26.3" stroke="#19459D" stroke-width="2" stroke-miterlimit="10" stroke-linecap="round" stroke-linejoin="round"/>
<path d="M23.3998 36.7996C25.6642 36.7996 27.4998 34.964 27.4998 32.6996C27.4998 30.4352 25.6642 28.5996 23.3998 28.5996C21.1354 28.5996 19.2998 30.4352 19.2998 32.6996C19.2998 34.964 21.1354 36.7996 23.3998 36.7996Z" stroke="#19459D" stroke-width="2" stroke-miterlimit="10" stroke-linecap="round" stroke-linejoin="round"/>
<path d="M11.6 36.7996C13.8644 36.7996 15.7 34.964 15.7 32.6996C15.7 30.4352 13.8644 28.5996 11.6 28.5996C9.33563 28.5996 7.5 30.4352 7.5 32.6996C7.5 34.964 9.33563 36.7996 11.6 36.7996Z" stroke="#19459D" stroke-width="2" stroke-miterlimit="10" stroke-linecap="round" stroke-linejoin="round"/>
<path d="M4.8999 25.5996V32.5996H7.4999C7.4999 30.2996 9.3999 28.4996 11.5999 28.4996C13.7999 28.4996 15.6999 30.3996 15.6999 32.5996H19.1999C19.1999 30.2996 21.0999 28.4996 23.2999 28.4996C25.4999 28.4996 27.3999 30.3996 27.3999 32.5996H42.4999V25.5996H4.8999Z" stroke="#19459D" stroke-width="2" stroke-miterlimit="10" stroke-linecap="round" stroke-linejoin="round"/>
<path d="M51.3002 36.7996C53.5646 36.7996 55.4002 34.964 55.4002 32.6996C55.4002 30.4352 53.5646 28.5996 51.3002 28.5996C49.0358 28.5996 47.2002 30.4352 47.2002 32.6996C47.2002 34.964 49.0358 36.7996 51.3002 36.7996Z" stroke="#19459D" stroke-width="2" stroke-miterlimit="10" stroke-linecap="round" stroke-linejoin="round"/>
<path d="M46.3003 12.3999V19.2999H56.1003L52.0003 12.3999H46.3003Z" stroke="#19459D" stroke-width="2" stroke-miterlimit="10" stroke-linecap="round" stroke-linejoin="round"/>
<path d="M46.3003 22.2998H48.4003" stroke="#19459D" stroke-width="2" stroke-miterlimit="10" stroke-linecap="round" stroke-linejoin="round"/>
<path d="M62.0001 28.4998V20.4998L59.9001 18.1998L54.0001 8.2998H42.6001V32.5998H47.1001C47.1001 30.2998 49.0001 28.4998 51.2001 28.4998C53.4001 28.4998 55.3001 30.3998 55.3001 32.5998H59.8001H63.8001V28.3998L62.0001 28.4998Z" stroke="#19459D" stroke-width="2" stroke-miterlimit="10" stroke-linecap="round" stroke-linejoin="round"/>
</svg>
