<?xml version="1.0" encoding="UTF-8" standalone="no"?>
<!-- Created with Inkscape (http://www.inkscape.org/) -->

<svg
   xmlns:dc="http://purl.org/dc/elements/1.1/"
   xmlns:cc="http://creativecommons.org/ns#"
   xmlns:rdf="http://www.w3.org/1999/02/22-rdf-syntax-ns#"
   xmlns:svg="http://www.w3.org/2000/svg"
   xmlns="http://www.w3.org/2000/svg"
   xmlns:sodipodi="http://sodipodi.sourceforge.net/DTD/sodipodi-0.dtd"
   xmlns:inkscape="http://www.inkscape.org/namespaces/inkscape"
   width="210mm"
   height="297mm"
   viewBox="0 0 210 297"
   version="1.1"
   id="svg8"
   inkscape:version="0.92.4 (5da689c313, 2019-01-14)"
   sodipodi:docname="logo.svg">
  <defs
     id="defs2" />
  <sodipodi:namedview
     id="base"
     pagecolor="#ffffff"
     bordercolor="#666666"
     borderopacity="1.0"
     inkscape:pageopacity="0.0"
     inkscape:pageshadow="2"
     inkscape:zoom="2.8284271"
     inkscape:cx="282.28657"
     inkscape:cy="757.2668"
     inkscape:document-units="mm"
     inkscape:current-layer="layer1"
     showgrid="false"
     inkscape:window-width="3440"
     inkscape:window-height="1361"
     inkscape:window-x="1911"
     inkscape:window-y="-9"
     inkscape:window-maximized="1" />
  <metadata
     id="metadata5">
    <rdf:RDF>
      <cc:Work
         rdf:about="">
        <dc:format>image/svg+xml</dc:format>
        <dc:type
           rdf:resource="http://purl.org/dc/dcmitype/StillImage" />
        <dc:title></dc:title>
      </cc:Work>
    </rdf:RDF>
  </metadata>
  <g
     inkscape:label="Layer 1"
     inkscape:groupmode="layer"
     id="layer1">
    <path
       style="font-style:normal;font-weight:normal;font-size:40px;line-height:1.25;font-family:sans-serif;letter-spacing:0px;word-spacing:0px;fill:#000000;fill-opacity:1;stroke:none;stroke-width:8.12995434"
       d="M 461.7832 304.23242 C 452.28776 305.59196 442.64374 306.27148 432.85156 306.27148 L 379.43945 306.27148 L 379.43945 485.39062 L 383.29688 485.39062 C 385.57183 485.39062 395.46347 486.07015 412.9707 487.42969 L 412.9707 484.37109 C 405.75021 482.67167 400.40915 478.30943 396.94727 471.28516 C 393.48538 464.26088 391.75391 453.78095 391.75391 439.8457 L 391.75391 318.16797 L 425.43359 318.16797 C 438.1931 318.16797 446.54942 321.28246 450.50586 327.51367 C 454.36338 333.63159 456.39202 341.33679 456.58984 350.62695 L 460.15039 350.62695 C 460.64495 345.52869 460.89258 340.48692 460.89258 335.50195 C 460.89258 327.68462 461.04116 321.17054 461.33789 315.95898 C 461.63462 310.29425 461.7832 306.38502 461.7832 304.23242 z "
       transform="scale(0.26458333)"
       id="flowRoot815" />
    <rect
       style="fill:#000000;fill-opacity:1;stroke-width:0.32765567"
       id="rect828"
       width="1.343063"
       height="6.8821893"
       x="97.262932"
       y="80.988388" />
    <rect
       style="fill:#000000;fill-opacity:1;stroke-width:0.32765567"
       id="rect828-6"
       width="1.343063"
       height="6.8821898"
       x="97.262932"
       y="121.33524" />
    <rect
       style="fill:#000000;fill-opacity:1;stroke-width:0.32765567"
       id="rect828-7"
       width="1.343063"
       height="6.8821898"
       x="97.262932"
       y="101.16182" />
    <rect
       style="fill:#000000;fill-opacity:1;stroke-width:0.32765567"
       id="rect828-3"
       width="1.343063"
       height="6.8821898"
       x="97.262932"
       y="91.075111" />
    <rect
       style="fill:#000000;fill-opacity:1;stroke-width:0.32765567"
       id="rect828-5"
       width="1.343063"
       height="6.8821898"
       x="97.262932"
       y="111.24853" />
    <path
       inkscape:connector-curvature="0"
       style="font-style:normal;font-weight:normal;font-size:40px;line-height:1.25;font-family:sans-serif;letter-spacing:0px;word-spacing:0px;fill:#000000;fill-opacity:1;stroke:none;stroke-width:2.15105033"
       d="m 73.68254,80.494824 c 2.51234,0.359712 5.06399,0.539501 7.654828,0.539501 h 14.131954 v 47.391945 h -1.020607 c -0.60191,0 -3.21908,0.17979 -7.8512,0.5395 v -0.80925 c 1.910422,-0.44964 3.32358,-1.60382 4.23953,-3.46232 0.91596,-1.85851 1.37408,-4.63132 1.37408,-8.31836 V 84.181938 h -8.911087 c -3.375948,0 -5.586888,0.824043 -6.633698,2.472717 -1.02064,1.6187 -1.55738,3.657367 -1.60972,6.115388 h -0.94206 c -0.13085,-1.348914 -0.19637,-2.682882 -0.19637,-4.001822 0,-2.068336 -0.0393,-3.791853 -0.11782,-5.170745 -0.0785,-1.498793 -0.11783,-2.53311 -0.11783,-3.102652 z"
       id="flowRoot815-7" />
  </g>
</svg>
