<svg width="51.805mm" height="48.471mm" version="1.1" viewBox="0 0 51.805 48.471" xmlns="http://www.w3.org/2000/svg">
 <g transform="translate(-70.375 -80.495)">
  <path transform="scale(.26458)" d="m461.78 304.23c-9.4954 1.3595-19.139 2.0391-28.932 2.0391h-53.412v179.12h3.8574c2.275 0 12.167 0.67953 29.674 2.0391v-3.0586c-7.2205-1.6994-12.562-6.0617-16.023-13.086-3.4619-7.0243-5.1934-17.504-5.1934-31.439v-121.68h33.68c12.76 0 21.116 3.1145 25.072 9.3457 3.8575 6.1179 5.8862 13.823 6.084 23.113h3.5606c0.49456-5.0983 0.74219-10.14 0.74219-15.125 0-7.8173 0.14858-14.331 0.44531-19.543 0.29673-5.6647 0.44531-9.574 0.44531-11.727z"/>
  <g stroke-width=".5162">
   <rect x="94.634" y="81.055" width="3.3381" height="6.8726"/>
   <rect x="94.634" y="121.34" width="3.3381" height="6.8726"/>
   <rect x="94.634" y="101.2" width="3.3381" height="6.8726"/>
   <rect x="94.634" y="91.127" width="3.3381" height="6.8726"/>
   <rect x="94.634" y="111.27" width="3.3381" height="6.8726"/>
  </g>
  <path d="m70.375 80.495c2.5123 0.35971 5.064 0.5395 7.6548 0.5395h14.132v47.392h-1.0206c-0.60191 0-3.2191 0.17979-7.8512 0.5395v-0.80925c1.9104-0.44964 3.3236-1.6038 4.2395-3.4623 0.91596-1.8585 1.3741-4.6313 1.3741-8.3184v-32.194h-8.9111c-3.3759 0-5.5869 0.82404-6.6337 2.4727-1.0206 1.6187-1.5574 3.6574-1.6097 6.1154h-0.94206c-0.13085-1.3489-0.19637-2.6829-0.19637-4.0018 0-2.0683-0.0393-3.7919-0.11782-5.1707-0.0785-1.4988-0.11783-2.5331-0.11783-3.1027z"/>
 </g>
</svg>
